<svg width="74" height="70" viewBox="0 0 74 70" fill="none" xmlns="http://www.w3.org/2000/svg">
<path d="M18.6485 56.7484L26.9135 51.4153L13.1727 30.129L36.9568 21.3974L33.5652 12.1644L4.01211 23.0149C3.31972 23.2689 2.69335 23.6755 2.1794 24.2045C1.66545 24.7334 1.27709 25.3713 1.04308 26.0707C0.809076 26.7701 0.735418 27.5132 0.827563 28.2449C0.919708 28.9767 1.1753 29.6783 1.5754 30.2979L18.6485 56.7484ZM76.6944 26.5943L68.4294 31.9273L82.1702 53.2137L58.3862 61.9453L61.7778 71.1783L91.3309 60.3278C92.0232 60.0737 92.6496 59.6672 93.1636 59.1382C93.6775 58.6092 94.0659 57.9714 94.2999 57.272C94.5339 56.5726 94.6075 55.8295 94.5154 55.0977C94.4232 54.366 94.1677 53.6643 93.7676 53.0448L76.6944 26.5943ZM75.2504 5.35741L28.5201 83.0446L20.091 77.9744L66.8213 0.287167L75.2504 5.35741Z" fill="#444444" fill-opacity="0.2"/>
</svg>
